<svg width="18" height="17" viewBox="0 0 18 17" fill="none" xmlns="http://www.w3.org/2000/svg">
<path d="M9 16.6538L8.2423 15.9691C6.61025 14.4781 5.26025 13.2018 4.1923 12.1403C3.12435 11.0788 2.2814 10.1425 1.66345 9.33163C1.0455 8.52073 0.613775 7.78708 0.368275 7.13068C0.122758 6.47426 0 5.814 0 5.1499C0 3.8781 0.43205 2.81015 1.29615 1.94605C2.16025 1.08195 3.2282 0.649902 4.5 0.649902C5.37948 0.649902 6.20448 0.874902 6.975 1.3249C7.74552 1.7749 8.42052 2.42939 9 3.28835C9.57948 2.42939 10.2545 1.7749 11.025 1.3249C11.7955 0.874902 12.6205 0.649902 13.5 0.649902C14.7718 0.649902 15.8398 1.08195 16.7038 1.94605C17.5679 2.81015 18 3.8781 18 5.1499C18 5.814 17.8772 6.47426 17.6317 7.13068C17.3862 7.78708 16.9545 8.52073 16.3365 9.33163C15.7186 10.1425 14.8789 11.0788 13.8173 12.1403C12.7558 13.2018 11.4026 14.4781 9.7577 15.9691L9 16.6538Z" fill="white"/>
</svg>
