<svg width="16" height="16" viewBox="0 0 16 16" fill="none" xmlns="http://www.w3.org/2000/svg">
<path d="M7.99997 7.69231C7.03749 7.69231 6.21354 7.34961 5.52813 6.66421C4.84271 5.97879 4.5 5.15484 4.5 4.19236C4.5 3.22986 4.84271 2.40591 5.52813 1.72051C6.21354 1.03509 7.03749 0.692383 7.99997 0.692383C8.96246 0.692383 9.78641 1.03509 10.4718 1.72051C11.1572 2.40591 11.5 3.22986 11.5 4.19236C11.5 5.15484 11.1572 5.97879 10.4718 6.66421C9.78641 7.34961 8.96246 7.69231 7.99997 7.69231ZM0.5 15.3077V13.0846C0.5 12.5949 0.633016 12.1414 0.89905 11.7241C1.16507 11.3068 1.52051 10.9859 1.96537 10.7616C2.95384 10.277 3.95096 9.91351 4.95672 9.67121C5.96249 9.42891 6.97691 9.30776 7.99997 9.30776C9.02304 9.30776 10.0375 9.42891 11.0432 9.67121C12.049 9.91351 13.0461 10.277 14.0346 10.7616C14.4794 10.9859 14.8349 11.3068 15.1009 11.7241C15.3669 12.1414 15.5 12.5949 15.5 13.0846V15.3077H0.5Z" fill="white"/>
</svg>
